<?xml version="1.0" standalone="no"?>
<!DOCTYPE svg PUBLIC "-//W3C//DTD SVG 20010904//EN"
 "http://www.w3.org/TR/2001/REC-SVG-20010904/DTD/svg10.dtd">
<svg version="1.0" xmlns="http://www.w3.org/2000/svg"
 width="512.000000pt" height="512.000000pt" viewBox="0 0 512.000000 512.000000"
 preserveAspectRatio="xMidYMid meet">

<g transform="translate(0.000000,512.000000) scale(0.100000,-0.100000)"
fill="#000000" stroke="none">
<path d="M3866 5110 c-169 -27 -355 -105 -491 -207 -270 -202 -435 -525 -435
-852 0 -244 114 -569 400 -1141 200 -399 445 -835 492 -875 64 -54 107 -70
193 -70 69 1 87 4 133 30 77 42 105 78 222 285 412 730 672 1311 726 1620 59
341 -103 740 -393 969 -148 116 -264 174 -432 218 -108 28 -311 39 -415 23z
m294 -161 c100 -16 252 -71 341 -125 321 -194 511 -584 445 -914 -23 -114 -93
-322 -168 -500 -110 -260 -406 -835 -607 -1178 -51 -87 -88 -115 -147 -109
-22 2 -52 12 -66 21 -42 27 -402 672 -556 996 -145 306 -255 590 -287 745 -42
203 1 434 115 627 50 84 171 213 255 273 196 140 447 201 675 164z"/>
<path d="M3931 4729 c-156 -24 -281 -87 -397 -203 -66 -66 -90 -98 -128 -176
-100 -205 -102 -424 -6 -625 73 -150 175 -252 325 -325 282 -136 609 -74 823
155 238 255 249 648 27 927 -81 102 -232 197 -365 231 -77 20 -203 27 -279 16z
m259 -179 c160 -47 310 -196 361 -359 28 -90 28 -223 0 -311 -100 -318 -446
-477 -744 -341 -105 48 -222 165 -268 267 -90 199 -53 429 93 589 146 161 346
216 558 155z"/>
<path d="M1120 3951 c-250 -6 -268 -7 -311 -29 -25 -13 -58 -35 -72 -50 -14
-15 -185 -236 -381 -492 l-356 -465 0 -175 c0 -190 12 -265 54 -348 37 -73 99
-147 160 -189 l55 -38 1 -1002 0 -1003 -94 0 c-116 0 -141 -14 -141 -80 0 -32
6 -47 24 -61 23 -19 79 -19 2213 -19 l2189 0 24 25 c35 34 34 86 -1 114 -23
18 -41 21 -115 21 l-89 0 0 804 c0 798 0 803 -21 830 -29 37 -89 37 -118 0
-21 -27 -21 -32 -21 -830 l0 -804 -230 0 -230 0 0 640 c0 422 -4 656 -11 690
-15 68 -64 138 -123 175 l-49 30 -441 3 c-329 2 -452 0 -486 -9 -59 -17 -141
-97 -158 -155 -9 -31 -12 -214 -12 -708 l0 -666 -975 0 -975 0 0 970 0 970 83
0 c81 0 149 14 217 43 58 25 156 102 192 151 18 25 35 45 38 45 3 0 23 -23 45
-52 47 -60 140 -126 222 -157 73 -28 203 -38 282 -20 108 24 224 96 291 181
l37 48 34 -45 c88 -118 246 -194 398 -194 155 1 259 46 372 161 l77 77 33 -44
c88 -118 245 -194 398 -194 92 0 159 17 240 61 77 41 105 73 97 113 -15 71
-74 86 -150 37 -65 -40 -124 -54 -209 -49 -133 9 -259 101 -308 226 -20 48
-23 76 -23 187 l-1 130 160 3 c147 2 161 4 182 24 32 30 31 81 -2 113 -24 25
-27 25 -188 25 l-163 0 -58 378 c-32 207 -60 391 -63 408 -5 31 -4 31 43 37
33 3 54 12 66 27 25 31 23 82 -3 106 -20 18 -43 19 -378 21 -196 1 -502 3
-681 5 -179 2 -444 2 -590 -1z m-29 -571 l-186 -410 -327 0 c-181 0 -328 3
-328 6 0 3 134 181 297 396 213 280 306 395 328 404 21 9 85 13 216 14 l187 0
-187 -410z m792 388 c-2 -13 -30 -196 -63 -407 -33 -211 -61 -385 -63 -387 -2
-3 -153 -3 -334 -2 l-331 3 175 385 c96 212 178 395 183 408 9 22 11 22 223
22 l214 0 -4 -22z m611 -5 c7 -35 80 -492 101 -633 8 -58 18 -117 21 -132 l6
-28 -347 0 -347 0 6 33 c3 17 31 196 61 397 31 201 58 371 60 378 3 9 56 12
219 12 l214 0 6 -27z m-1616 -1091 c-3 -132 -4 -140 -36 -204 -137 -278 -507
-278 -644 0 -32 64 -33 72 -36 204 l-4 138 362 0 362 0 -4 -138z m872 -5 c0
-140 -1 -145 -31 -205 -18 -37 -51 -80 -85 -111 -176 -161 -447 -105 -556 117
-32 64 -33 72 -36 204 l-4 138 356 0 356 0 0 -143z m878 1 c-3 -133 -5 -147
-31 -200 -37 -76 -128 -159 -204 -188 -88 -33 -196 -26 -281 20 -78 41 -144
113 -171 186 -17 45 -21 78 -21 189 l0 135 356 0 356 0 -4 -142z m821 -1144
c51 -36 51 -35 51 -724 l0 -640 -480 0 -480 0 0 664 0 663 26 27 27 26 416 0
c369 0 419 -2 440 -16z"/>
<path d="M2661 1354 c-20 -25 -21 -39 -21 -241 0 -214 0 -214 25 -238 l24 -25
329 0 329 0 21 23 c21 22 22 31 22 245 0 209 -1 223 -20 242 -19 19 -33 20
-354 20 l-335 0 -20 -26z m569 -239 l0 -105 -215 0 -215 0 0 105 0 105 215 0
215 0 0 -105z"/>
<path d="M2659 661 c-21 -17 -24 -29 -27 -103 -3 -73 -1 -86 18 -110 17 -22
30 -28 61 -28 65 0 79 23 79 129 0 85 -1 91 -26 110 -33 26 -75 27 -105 2z"/>
<path d="M865 1646 c-46 -20 -94 -64 -118 -110 -21 -40 -22 -52 -25 -389 -3
-395 0 -416 66 -479 79 -76 53 -73 572 -76 319 -2 481 0 517 8 72 16 129 60
159 123 24 52 24 53 24 405 0 389 -1 395 -63 461 -69 72 -55 71 -607 70 -386
0 -502 -3 -525 -13z m1015 -166 c19 -19 20 -33 20 -354 l0 -335 -27 -21 c-26
-20 -32 -21 -491 -18 l-464 3 -19 24 c-18 22 -19 43 -19 346 0 311 1 323 21
349 l20 26 470 0 c456 0 470 -1 489 -20z"/>
</g>
</svg>
